
<svg xmlns="http://www.w3.org/2000/svg" width="121.346" height="28.419" viewBox="0 0 121.346 28.419"><path fill="#fff" stroke="rgba(0,0,0,0)" stroke-miterlimit="10" stroke-width="1" d="M11.625 27.521a1.785 1.785 0 01-.661-.658.565.565 0 01-.04-.077 1.831 1.831 0 01-.012-1.652 1.652 1.652 0 01.833-1.549l4.085-2.36 2.529-1.462h0a1.667 1.667 0 00.649-2.218.286.286 0 00-.034-.068 1.632 1.632 0 00-.512-.546l-.065-.039a2.959 2.959 0 00-2.386.1c-.059.032-.116.06-.174.095l-.784.45-1.945 1.123-4.8 2.773-.257.149a.236.236 0 00-.043.028l-.242.14a5.006 5.006 0 01-7-2.867A7.05 7.05 0 01.5 17.221V8.235a2.97 2.97 0 011.486-2.57 1.784 1.784 0 01.9-.242h.086a1.835 1.835 0 011.471.865 1.652 1.652 0 01.922 1.493v7.634h0a1.671 1.671 0 001.6 1.671.768.768 0 00.079 0 1.67 1.67 0 00.386-.046l.04-.023-.034.022c.045-.011.089-.024.133-.039a2.963 2.963 0 001.34-2.285c0-.068.008-.131.008-.2v-3.142L8.914 5.8v-.262a.312.312 0 000-.051v-.165a5 5 0 014.2-4.759 5.186 5.186 0 01.8-.063A5.078 5.078 0 0115.1.64h.011a7.37 7.37 0 011.164.447.025.025 0 01.017.009c.06.029.12.059.18.091L21.524 4.1l2.732 1.576a2.958 2.958 0 011.486 2.568 1.752 1.752 0 01-.239.9.674.674 0 01-.045.074 1.838 1.838 0 01-1.381.833 1.656 1.656 0 01-1.829.1L18.17 7.812l-2.545-1.463h0a1.671 1.671 0 00-2.247.546l-.042.066a1.631 1.631 0 00-.2.6 2.959 2.959 0 001.3 2.147c.057.037.111.071.168.105l.807.467 1.925 1.109 4.688 2.7.017.009.351.2a.235.235 0 00.045.023l.339.193a4.542 4.542 0 01.577.462 5 5 0 011.274 5.43 4.9 4.9 0 01-.969 1.588 7.166 7.166 0 01-1.221.988.4.4 0 01-.048.031l-5.053 2.921-2.73 1.576a2.968 2.968 0 01-2.972 0zm84.464-5.157a6.061 6.061 0 01-3.272-3.271 6.244 6.244 0 010-4.809 6.282 6.282 0 011.311-1.972 6.214 6.214 0 016.772-1.322 6.134 6.134 0 013.3 3.294 6.162 6.162 0 01-1.323 6.768 6.3 6.3 0 01-1.974 1.311 6.261 6.261 0 01-4.811 0zm.769-9.594a4.119 4.119 0 00-1.336.925 4.632 4.632 0 00-.9 1.359 4.138 4.138 0 000 3.27 4.458 4.458 0 00.9 1.346 4.218 4.218 0 001.336.914 4.155 4.155 0 003.272 0 4.333 4.333 0 002.262-2.261 4.138 4.138 0 000-3.27 4.515 4.515 0 00-.914-1.359 4.258 4.258 0 00-1.347-.925 4.135 4.135 0 00-3.272 0zm-55.6 9.678a6.547 6.547 0 01-2.418-1.274 6.181 6.181 0 01-1.672-2.308 8.731 8.731 0 01-.625-3.5V5.243a.556.556 0 01.132-.372.435.435 0 01.349-.157h3.657c.225 0 .369.048.433.144a.679.679 0 01.1.384v10.2a4.113 4.113 0 00.241 1.5 2.805 2.805 0 00.65 1.011 2.488 2.488 0 00.938.576 3.4 3.4 0 001.107.18 3.044 3.044 0 001.143-.216 2.667 2.667 0 00.938-.625 3.056 3.056 0 00.638-1.022 3.833 3.833 0 00.24-1.407V5.243a.516.516 0 01.554-.528h3.513a.569.569 0 01.421.157.506.506 0 01.156.372v10.122a8.95 8.95 0 01-.613 3.523 6.068 6.068 0 01-1.66 2.309 6.4 6.4 0 01-2.43 1.263 10.8 10.8 0 01-2.9.384 10.331 10.331 0 01-2.892-.398zm38.748-.409a7.272 7.272 0 01-2.851-2.273.81.81 0 01-.193-.433.481.481 0 01.217-.384l.77-.649a.605.605 0 01.36-.121.46.46 0 01.325.157l.205.2a6.291 6.291 0 001.191.975 8.8 8.8 0 001.323.7 8.429 8.429 0 001.263.42 4.529 4.529 0 001.035.144 6.462 6.462 0 001.563-.2 5.161 5.161 0 001.492-.625 3.621 3.621 0 001.107-1.07 2.666 2.666 0 00.433-1.515 1.877 1.877 0 00-.409-1.239 3.589 3.589 0 00-1.083-.853 7.9 7.9 0 00-1.552-.613q-.879-.252-1.816-.493a13.422 13.422 0 01-4.451-1.839 3.4 3.4 0 01-1.467-2.9 4.654 4.654 0 01.433-2.02 4.471 4.471 0 011.251-1.575 5.9 5.9 0 011.961-1.022 8.406 8.406 0 012.538-.361 7.434 7.434 0 012.935.637 8.154 8.154 0 012.526 1.647l.3.349a.519.519 0 01.156.324.55.55 0 01-.193.384l-.721.7a.471.471 0 01-.313.168.663.663 0 01-.433-.24q-.289-.265-.722-.6a7.283 7.283 0 00-.986-.637 6.725 6.725 0 00-1.215-.5 4.847 4.847 0 00-1.432-.2 5.38 5.38 0 00-1.744.253 3.567 3.567 0 00-1.2.661 2.655 2.655 0 00-.7.926 2.572 2.572 0 00-.229 1.046 1.624 1.624 0 00.374 1.058 3.152 3.152 0 00.985.781 8.128 8.128 0 001.383.565q.771.24 1.54.456 1.084.289 2.2.637a9.394 9.394 0 012.046.9 4.989 4.989 0 011.516 1.37 3.487 3.487 0 01.589 2.092 5.047 5.047 0 01-.529 2.333 5.332 5.332 0 01-1.432 1.755 6.469 6.469 0 01-2.129 1.106 8.81 8.81 0 01-2.647.384 8.669 8.669 0 01-3.571-.766zm38.3.649a2.146 2.146 0 01-.958-.385 2.1 2.1 0 01-.671-.877 3.882 3.882 0 01-.255-1.539v-7.214h-1.444a.772.772 0 01-.445-.109.478.478 0 01-.157-.42v-.889a.445.445 0 01.157-.409.848.848 0 01.445-.1h1.444V7.359a.464.464 0 01.414-.481l1.241-.168a.369.369 0 01.377.193 1.059 1.059 0 01.085.433v3.414h1.781q.529 0 .529.554v.796q0 .576-.529.577h-1.781v6.444a5.571 5.571 0 00.061.938.973.973 0 00.216.5.663.663 0 00.4.2 4.26 4.26 0 00.6.036.532.532 0 01.6.6v.77c0 .352-.2.545-.6.577a1.261 1.261 0 00-.18.012 1.471 1.471 0 01-.205.013 7.413 7.413 0 01-1.131-.079zm-9.174-.132q-.578 0-.578-.6v-9.307H107.3a.566.566 0 01-.433-.18.693.693 0 01-.168-.493v-.626a.561.561 0 01.168-.468.674.674 0 01.433-.133h1.251V8.442a4.075 4.075 0 01.9-2.741 3.738 3.738 0 012.949-1.083q.576 0 .577.625v.818a.688.688 0 01-.132.42.46.46 0 01-.4.181 2.335 2.335 0 00-1.311.36 1.712 1.712 0 00-.469 1.444v2.283h1.735c.384 0 .577.2.577.6v.626q0 .674-.577.673h-1.732v9.306a.526.526 0 01-.2.444.683.683 0 01-.422.157zm-38.64 0a.531.531 0 01-.6-.6v-10.58a.657.657 0 01.157-.445.56.56 0 01.445-.181H73.5a.784.784 0 01.434.169.529.529 0 01.24.457v10.58q0 .6-.674.6zm-6.953 0q-.625 0-.625-.577v-5.747a1.743 1.743 0 00-.414-1.262 1.782 1.782 0 00-1.323-.421 2.054 2.054 0 00-.625.108 2.457 2.457 0 00-.638.313 2.07 2.07 0 00-.518.5 1.292 1.292 0 00-.24.686v5.8a.628.628 0 01-.144.456.746.746 0 01-.529.144H55.5a.6.6 0 01-.482-.168.637.637 0 01-.144-.432V11.471a.8.8 0 01.156-.553.754.754 0 01.565-.169h1.564a1.054 1.054 0 01.975.494 4.246 4.246 0 01.469 1.118 3.651 3.651 0 01.614-.565 6.621 6.621 0 011.985-1.011 3.937 3.937 0 011.178-.179 6.279 6.279 0 012.286.36 3.4 3.4 0 011.48 1.094 4.457 4.457 0 01.795 1.851 13.25 13.25 0 01.228 2.609v5.434a.559.559 0 01-.18.445.656.656 0 01-.445.156zm6.87-13.982a2.112 2.112 0 01-.637-1.552 2.2 2.2 0 013.753-1.55 2.13 2.13 0 01.625 1.55 2.134 2.134 0 01-.625 1.552 2.223 2.223 0 01-3.116 0z" data-name="Union 2"></path></svg>